<mxfile host="drawio-plugin" modified="2021-11-02T10:42:17.452Z" agent="5.0 (X11; Linux x86_64) AppleWebKit/537.36 (KHTML, like Gecko) Chrome/89.0.4389.114 Safari/537.36" etag="QMHAY5lWNTlrWrOoMLRO" version="14.7.4" type="embed" pages="2"><diagram id="MJXwWupWAotVnkR3o3bz" name="First"><mxGraphModel dx="943" dy="690" grid="1" gridSize="10" guides="1" tooltips="1" connect="1" arrows="1" fold="1" page="1" pageScale="1" pageWidth="827" pageHeight="1169" math="0" shadow="0"><root><mxCell id="0"/><mxCell id="1" parent="0"/><mxCell id="dncsjwjUdTOFUu4iO9g8-18" value="" style="html=1;" parent="1" vertex="1"><mxGeometry x="210" y="500" width="500" height="470" as="geometry"/></mxCell><mxCell id="dncsjwjUdTOFUu4iO9g8-21" style="rounded=0;orthogonalLoop=1;jettySize=auto;html=1;exitX=1;exitY=0.3333333333333333;exitDx=0;exitDy=0;exitPerimeter=0;endArrow=none;endFill=0;entryX=0;entryY=0.5;entryDx=0;entryDy=0;" parent="1" source="dncsjwjUdTOFUu4iO9g8-4" target="dncsjwjUdTOFUu4iO9g8-12" edge="1"><mxGeometry relative="1" as="geometry"><mxPoint x="280" y="565" as="targetPoint"/></mxGeometry></mxCell><mxCell id="dncsjwjUdTOFUu4iO9g8-24" style="edgeStyle=none;rounded=0;orthogonalLoop=1;jettySize=auto;html=1;exitX=1;exitY=0.3333333333333333;exitDx=0;exitDy=0;exitPerimeter=0;entryX=0;entryY=0.5;entryDx=0;entryDy=0;endArrow=none;endFill=0;" parent="1" source="dncsjwjUdTOFUu4iO9g8-4" target="dncsjwjUdTOFUu4iO9g8-11" edge="1"><mxGeometry relative="1" as="geometry"/></mxCell><mxCell id="dncsjwjUdTOFUu4iO9g8-26" style="edgeStyle=none;rounded=0;orthogonalLoop=1;jettySize=auto;html=1;exitX=1;exitY=0.3333333333333333;exitDx=0;exitDy=0;exitPerimeter=0;entryX=0;entryY=0.5;entryDx=0;entryDy=0;endArrow=none;endFill=0;" parent="1" source="dncsjwjUdTOFUu4iO9g8-4" target="dncsjwjUdTOFUu4iO9g8-16" edge="1"><mxGeometry relative="1" as="geometry"/></mxCell><mxCell id="dncsjwjUdTOFUu4iO9g8-29" style="edgeStyle=none;rounded=0;orthogonalLoop=1;jettySize=auto;html=1;exitX=1;exitY=0.3333333333333333;exitDx=0;exitDy=0;exitPerimeter=0;entryX=0;entryY=0.5;entryDx=0;entryDy=0;endArrow=none;endFill=0;" parent="1" source="dncsjwjUdTOFUu4iO9g8-4" target="dncsjwjUdTOFUu4iO9g8-13" edge="1"><mxGeometry relative="1" as="geometry"/></mxCell><mxCell id="dncsjwjUdTOFUu4iO9g8-32" style="edgeStyle=none;rounded=0;orthogonalLoop=1;jettySize=auto;html=1;exitX=1;exitY=0.3333333333333333;exitDx=0;exitDy=0;exitPerimeter=0;entryX=0;entryY=0.5;entryDx=0;entryDy=0;endArrow=none;endFill=0;" parent="1" source="dncsjwjUdTOFUu4iO9g8-4" target="dncsjwjUdTOFUu4iO9g8-9" edge="1"><mxGeometry relative="1" as="geometry"/></mxCell><mxCell id="dncsjwjUdTOFUu4iO9g8-33" style="edgeStyle=none;rounded=0;orthogonalLoop=1;jettySize=auto;html=1;exitX=1;exitY=0.3333333333333333;exitDx=0;exitDy=0;exitPerimeter=0;entryX=0;entryY=0.5;entryDx=0;entryDy=0;endArrow=none;endFill=0;" parent="1" source="dncsjwjUdTOFUu4iO9g8-4" target="dncsjwjUdTOFUu4iO9g8-10" edge="1"><mxGeometry relative="1" as="geometry"/></mxCell><mxCell id="dncsjwjUdTOFUu4iO9g8-4" value="Customer" style="shape=umlActor;verticalLabelPosition=bottom;verticalAlign=top;html=1;" parent="1" vertex="1"><mxGeometry x="80" y="700" width="30" height="60" as="geometry"/></mxCell><mxCell id="dncsjwjUdTOFUu4iO9g8-28" style="edgeStyle=none;rounded=0;orthogonalLoop=1;jettySize=auto;html=1;exitX=0;exitY=0.3333333333333333;exitDx=0;exitDy=0;exitPerimeter=0;entryX=1;entryY=0.5;entryDx=0;entryDy=0;endArrow=none;endFill=0;" parent="1" source="dncsjwjUdTOFUu4iO9g8-5" target="dncsjwjUdTOFUu4iO9g8-8" edge="1"><mxGeometry relative="1" as="geometry"/></mxCell><mxCell id="dncsjwjUdTOFUu4iO9g8-5" value="System" style="shape=umlActor;verticalLabelPosition=bottom;verticalAlign=top;html=1;" parent="1" vertex="1"><mxGeometry x="940" y="760" width="30" height="60" as="geometry"/></mxCell><mxCell id="dncsjwjUdTOFUu4iO9g8-6" value="Create account" style="ellipse;whiteSpace=wrap;html=1;" parent="1" vertex="1"><mxGeometry x="560" y="510" width="140" height="70" as="geometry"/></mxCell><mxCell id="dncsjwjUdTOFUu4iO9g8-42" value="&amp;lt;&amp;lt;include&amp;gt;&amp;gt;" style="edgeStyle=none;rounded=0;orthogonalLoop=1;jettySize=auto;html=1;exitX=0;exitY=0;exitDx=0;exitDy=0;entryX=0.5;entryY=1;entryDx=0;entryDy=0;endArrow=open;endFill=0;" parent="1" source="dncsjwjUdTOFUu4iO9g8-7" target="dncsjwjUdTOFUu4iO9g8-12" edge="1"><mxGeometry relative="1" as="geometry"/></mxCell><mxCell id="dncsjwjUdTOFUu4iO9g8-7" value="View stats" style="ellipse;whiteSpace=wrap;html=1;" parent="1" vertex="1"><mxGeometry x="390" y="890" width="140" height="70" as="geometry"/></mxCell><mxCell id="dncsjwjUdTOFUu4iO9g8-8" value="Pay interest" style="ellipse;whiteSpace=wrap;html=1;" parent="1" vertex="1"><mxGeometry x="560" y="890" width="140" height="70" as="geometry"/></mxCell><mxCell id="dncsjwjUdTOFUu4iO9g8-9" value="Register account" style="ellipse;whiteSpace=wrap;html=1;" parent="1" vertex="1"><mxGeometry x="220" y="515" width="140" height="70" as="geometry"/></mxCell><mxCell id="dncsjwjUdTOFUu4iO9g8-39" value="&amp;lt;&amp;lt;include&amp;gt;&amp;gt;" style="edgeStyle=none;rounded=0;orthogonalLoop=1;jettySize=auto;html=1;exitX=0;exitY=1;exitDx=0;exitDy=0;entryX=0;entryY=0;entryDx=0;entryDy=0;endArrow=open;endFill=0;" parent="1" source="dncsjwjUdTOFUu4iO9g8-10" target="dncsjwjUdTOFUu4iO9g8-12" edge="1"><mxGeometry relative="1" as="geometry"/></mxCell><mxCell id="dncsjwjUdTOFUu4iO9g8-10" value="Delete account" style="ellipse;whiteSpace=wrap;html=1;" parent="1" vertex="1"><mxGeometry x="390" y="565" width="140" height="70" as="geometry"/></mxCell><mxCell id="dncsjwjUdTOFUu4iO9g8-40" value="&amp;lt;&amp;lt;include&amp;gt;&amp;gt;" style="edgeStyle=none;rounded=0;orthogonalLoop=1;jettySize=auto;html=1;exitX=0;exitY=0;exitDx=0;exitDy=0;entryX=1;entryY=1;entryDx=0;entryDy=0;endArrow=open;endFill=0;" parent="1" source="dncsjwjUdTOFUu4iO9g8-11" target="dncsjwjUdTOFUu4iO9g8-12" edge="1"><mxGeometry relative="1" as="geometry"/></mxCell><mxCell id="dncsjwjUdTOFUu4iO9g8-11" value="logout" style="ellipse;whiteSpace=wrap;html=1;" parent="1" vertex="1"><mxGeometry x="450" y="800" width="140" height="70" as="geometry"/></mxCell><mxCell id="dncsjwjUdTOFUu4iO9g8-12" value="login" style="ellipse;whiteSpace=wrap;html=1;" parent="1" vertex="1"><mxGeometry x="320" y="710" width="140" height="70" as="geometry"/></mxCell><mxCell id="dncsjwjUdTOFUu4iO9g8-41" value="&amp;lt;&amp;lt;include&amp;gt;&amp;gt;" style="edgeStyle=none;rounded=0;orthogonalLoop=1;jettySize=auto;html=1;exitX=0;exitY=1;exitDx=0;exitDy=0;entryX=1;entryY=0;entryDx=0;entryDy=0;endArrow=open;endFill=0;" parent="1" source="dncsjwjUdTOFUu4iO9g8-13" target="dncsjwjUdTOFUu4iO9g8-12" edge="1"><mxGeometry relative="1" as="geometry"/></mxCell><mxCell id="dncsjwjUdTOFUu4iO9g8-13" value="Update password" style="ellipse;whiteSpace=wrap;html=1;" parent="1" vertex="1"><mxGeometry x="480" y="635" width="140" height="70" as="geometry"/></mxCell><mxCell id="dncsjwjUdTOFUu4iO9g8-22" style="rounded=0;orthogonalLoop=1;jettySize=auto;html=1;exitX=0;exitY=0.3333333333333333;exitDx=0;exitDy=0;exitPerimeter=0;endArrow=none;endFill=0;entryX=1;entryY=0.5;entryDx=0;entryDy=0;" parent="1" source="dncsjwjUdTOFUu4iO9g8-14" target="dncsjwjUdTOFUu4iO9g8-12" edge="1"><mxGeometry relative="1" as="geometry"><mxPoint x="200" y="610" as="targetPoint"/></mxGeometry></mxCell><mxCell id="dncsjwjUdTOFUu4iO9g8-23" style="edgeStyle=none;rounded=0;orthogonalLoop=1;jettySize=auto;html=1;exitX=0;exitY=0.3333333333333333;exitDx=0;exitDy=0;exitPerimeter=0;entryX=1;entryY=0.5;entryDx=0;entryDy=0;endArrow=none;endFill=0;" parent="1" source="dncsjwjUdTOFUu4iO9g8-14" target="dncsjwjUdTOFUu4iO9g8-11" edge="1"><mxGeometry relative="1" as="geometry"/></mxCell><mxCell id="dncsjwjUdTOFUu4iO9g8-25" style="edgeStyle=none;rounded=0;orthogonalLoop=1;jettySize=auto;html=1;exitX=0;exitY=0.3333333333333333;exitDx=0;exitDy=0;exitPerimeter=0;entryX=1;entryY=0.5;entryDx=0;entryDy=0;endArrow=none;endFill=0;" parent="1" source="dncsjwjUdTOFUu4iO9g8-14" target="dncsjwjUdTOFUu4iO9g8-7" edge="1"><mxGeometry relative="1" as="geometry"/></mxCell><mxCell id="dncsjwjUdTOFUu4iO9g8-30" style="edgeStyle=none;rounded=0;orthogonalLoop=1;jettySize=auto;html=1;entryX=1;entryY=0.5;entryDx=0;entryDy=0;endArrow=none;endFill=0;exitX=0;exitY=0.3333333333333333;exitDx=0;exitDy=0;exitPerimeter=0;" parent="1" source="dncsjwjUdTOFUu4iO9g8-14" target="dncsjwjUdTOFUu4iO9g8-13" edge="1"><mxGeometry relative="1" as="geometry"/></mxCell><mxCell id="dncsjwjUdTOFUu4iO9g8-31" style="edgeStyle=none;rounded=0;orthogonalLoop=1;jettySize=auto;html=1;exitX=0;exitY=0.3333333333333333;exitDx=0;exitDy=0;exitPerimeter=0;entryX=1;entryY=0.5;entryDx=0;entryDy=0;endArrow=none;endFill=0;" parent="1" source="dncsjwjUdTOFUu4iO9g8-14" target="dncsjwjUdTOFUu4iO9g8-6" edge="1"><mxGeometry relative="1" as="geometry"/></mxCell><mxCell id="dncsjwjUdTOFUu4iO9g8-34" style="edgeStyle=none;rounded=0;orthogonalLoop=1;jettySize=auto;html=1;exitX=0;exitY=0.3333333333333333;exitDx=0;exitDy=0;exitPerimeter=0;entryX=1;entryY=0.5;entryDx=0;entryDy=0;endArrow=none;endFill=0;" parent="1" source="dncsjwjUdTOFUu4iO9g8-14" target="dncsjwjUdTOFUu4iO9g8-10" edge="1"><mxGeometry relative="1" as="geometry"/></mxCell><mxCell id="dncsjwjUdTOFUu4iO9g8-14" value="Admin" style="shape=umlActor;verticalLabelPosition=bottom;verticalAlign=top;html=1;" parent="1" vertex="1"><mxGeometry x="940" y="640" width="30" height="60" as="geometry"/></mxCell><mxCell id="dncsjwjUdTOFUu4iO9g8-37" style="edgeStyle=none;rounded=0;orthogonalLoop=1;jettySize=auto;html=1;exitX=0.5;exitY=0;exitDx=0;exitDy=0;endArrow=open;endFill=0;entryX=0;entryY=1;entryDx=0;entryDy=0;" parent="1" source="dncsjwjUdTOFUu4iO9g8-16" target="dncsjwjUdTOFUu4iO9g8-12" edge="1"><mxGeometry relative="1" as="geometry"/></mxCell><mxCell id="dncsjwjUdTOFUu4iO9g8-38" value="&amp;lt;&amp;lt;include&amp;gt;&amp;gt;" style="edgeLabel;html=1;align=center;verticalAlign=middle;resizable=0;points=[];" parent="dncsjwjUdTOFUu4iO9g8-37" vertex="1" connectable="0"><mxGeometry x="-0.3547" y="1" relative="1" as="geometry"><mxPoint x="22" y="-14" as="offset"/></mxGeometry></mxCell><mxCell id="dncsjwjUdTOFUu4iO9g8-16" value="Check balance" style="ellipse;whiteSpace=wrap;html=1;" parent="1" vertex="1"><mxGeometry x="220" y="890" width="140" height="70" as="geometry"/></mxCell></root></mxGraphModel></diagram><diagram id="DQcLk84EMTdlyG6tS-IE" name="Final"><mxGraphModel dx="943" dy="690" grid="1" gridSize="10" guides="1" tooltips="1" connect="1" arrows="1" fold="1" page="1" pageScale="1" pageWidth="850" pageHeight="1100" math="0" shadow="0"><root><mxCell id="8jS8tGEaeRGomXdJ01GG-0"/><mxCell id="8jS8tGEaeRGomXdJ01GG-1" parent="8jS8tGEaeRGomXdJ01GG-0"/><mxCell id="8jS8tGEaeRGomXdJ01GG-2" value="2" style="html=1;" parent="8jS8tGEaeRGomXdJ01GG-1" vertex="1"><mxGeometry x="210" y="370" width="500" height="600" as="geometry"/></mxCell><mxCell id="8jS8tGEaeRGomXdJ01GG-3" style="rounded=0;orthogonalLoop=1;jettySize=auto;html=1;exitX=1;exitY=0.3333333333333333;exitDx=0;exitDy=0;exitPerimeter=0;endArrow=none;endFill=0;entryX=0;entryY=0.5;entryDx=0;entryDy=0;" parent="8jS8tGEaeRGomXdJ01GG-1" source="8jS8tGEaeRGomXdJ01GG-9" target="8jS8tGEaeRGomXdJ01GG-21" edge="1"><mxGeometry relative="1" as="geometry"><mxPoint x="280" y="565" as="targetPoint"/></mxGeometry></mxCell><mxCell id="8jS8tGEaeRGomXdJ01GG-4" style="edgeStyle=none;rounded=0;orthogonalLoop=1;jettySize=auto;html=1;exitX=1;exitY=0.3333333333333333;exitDx=0;exitDy=0;exitPerimeter=0;entryX=0;entryY=0.5;entryDx=0;entryDy=0;endArrow=none;endFill=0;" parent="8jS8tGEaeRGomXdJ01GG-1" source="8jS8tGEaeRGomXdJ01GG-9" target="8jS8tGEaeRGomXdJ01GG-20" edge="1"><mxGeometry relative="1" as="geometry"/></mxCell><mxCell id="8jS8tGEaeRGomXdJ01GG-5" style="edgeStyle=none;rounded=0;orthogonalLoop=1;jettySize=auto;html=1;exitX=1;exitY=0.3333333333333333;exitDx=0;exitDy=0;exitPerimeter=0;entryX=0;entryY=0.5;entryDx=0;entryDy=0;endArrow=none;endFill=0;" parent="8jS8tGEaeRGomXdJ01GG-1" source="8jS8tGEaeRGomXdJ01GG-9" target="8jS8tGEaeRGomXdJ01GG-33" edge="1"><mxGeometry relative="1" as="geometry"/></mxCell><mxCell id="8jS8tGEaeRGomXdJ01GG-6" style="edgeStyle=none;rounded=0;orthogonalLoop=1;jettySize=auto;html=1;exitX=1;exitY=0.3333333333333333;exitDx=0;exitDy=0;exitPerimeter=0;entryX=0;entryY=0.5;entryDx=0;entryDy=0;endArrow=none;endFill=0;" parent="8jS8tGEaeRGomXdJ01GG-1" source="8jS8tGEaeRGomXdJ01GG-9" target="8jS8tGEaeRGomXdJ01GG-23" edge="1"><mxGeometry relative="1" as="geometry"/></mxCell><mxCell id="8jS8tGEaeRGomXdJ01GG-7" style="edgeStyle=none;rounded=0;orthogonalLoop=1;jettySize=auto;html=1;exitX=1;exitY=0.3333333333333333;exitDx=0;exitDy=0;exitPerimeter=0;entryX=0;entryY=0.5;entryDx=0;entryDy=0;endArrow=none;endFill=0;" parent="8jS8tGEaeRGomXdJ01GG-1" source="8jS8tGEaeRGomXdJ01GG-9" target="8jS8tGEaeRGomXdJ01GG-16" edge="1"><mxGeometry relative="1" as="geometry"/></mxCell><mxCell id="8jS8tGEaeRGomXdJ01GG-8" style="edgeStyle=none;rounded=0;orthogonalLoop=1;jettySize=auto;html=1;exitX=1;exitY=0.3333333333333333;exitDx=0;exitDy=0;exitPerimeter=0;entryX=0;entryY=0.5;entryDx=0;entryDy=0;endArrow=none;endFill=0;" parent="8jS8tGEaeRGomXdJ01GG-1" source="8jS8tGEaeRGomXdJ01GG-9" target="8jS8tGEaeRGomXdJ01GG-18" edge="1"><mxGeometry relative="1" as="geometry"/></mxCell><mxCell id="MYPOaZnT1eFd7IFUkO_L-2" style="rounded=0;orthogonalLoop=1;jettySize=auto;html=1;exitX=1;exitY=0.3333333333333333;exitDx=0;exitDy=0;exitPerimeter=0;entryX=0;entryY=0.5;entryDx=0;entryDy=0;endArrow=none;endFill=0;" parent="8jS8tGEaeRGomXdJ01GG-1" source="8jS8tGEaeRGomXdJ01GG-9" target="MYPOaZnT1eFd7IFUkO_L-0" edge="1"><mxGeometry relative="1" as="geometry"><Array as="points"><mxPoint x="250" y="560"/></Array></mxGeometry></mxCell><mxCell id="MYPOaZnT1eFd7IFUkO_L-3" style="edgeStyle=none;rounded=0;orthogonalLoop=1;jettySize=auto;html=1;exitX=1;exitY=0.3333333333333333;exitDx=0;exitDy=0;exitPerimeter=0;entryX=0;entryY=0.5;entryDx=0;entryDy=0;endArrow=none;endFill=0;" parent="8jS8tGEaeRGomXdJ01GG-1" source="8jS8tGEaeRGomXdJ01GG-9" target="MYPOaZnT1eFd7IFUkO_L-1" edge="1"><mxGeometry relative="1" as="geometry"><Array as="points"><mxPoint x="220" y="640"/></Array></mxGeometry></mxCell><mxCell id="8jS8tGEaeRGomXdJ01GG-9" value="Customer" style="shape=umlActor;verticalLabelPosition=bottom;verticalAlign=top;html=1;" parent="8jS8tGEaeRGomXdJ01GG-1" vertex="1"><mxGeometry x="80" y="700" width="30" height="60" as="geometry"/></mxCell><mxCell id="8jS8tGEaeRGomXdJ01GG-12" value="Create account" style="ellipse;whiteSpace=wrap;html=1;" parent="8jS8tGEaeRGomXdJ01GG-1" vertex="1"><mxGeometry x="530" y="460" width="140" height="70" as="geometry"/></mxCell><mxCell id="8jS8tGEaeRGomXdJ01GG-13" value="&amp;lt;&amp;lt;include&amp;gt;&amp;gt;" style="edgeStyle=none;rounded=0;orthogonalLoop=1;jettySize=auto;html=1;exitX=0;exitY=0;exitDx=0;exitDy=0;entryX=0.5;entryY=1;entryDx=0;entryDy=0;endArrow=open;endFill=0;" parent="8jS8tGEaeRGomXdJ01GG-1" source="8jS8tGEaeRGomXdJ01GG-14" target="8jS8tGEaeRGomXdJ01GG-21" edge="1"><mxGeometry relative="1" as="geometry"/></mxCell><mxCell id="8jS8tGEaeRGomXdJ01GG-14" value="View stats" style="ellipse;whiteSpace=wrap;html=1;" parent="8jS8tGEaeRGomXdJ01GG-1" vertex="1"><mxGeometry x="390" y="890" width="140" height="70" as="geometry"/></mxCell><mxCell id="8jS8tGEaeRGomXdJ01GG-16" value="Register account" style="ellipse;whiteSpace=wrap;html=1;" parent="8jS8tGEaeRGomXdJ01GG-1" vertex="1"><mxGeometry x="230" y="400" width="140" height="70" as="geometry"/></mxCell><mxCell id="8jS8tGEaeRGomXdJ01GG-17" value="&amp;lt;&amp;lt;include&amp;gt;&amp;gt;" style="edgeStyle=none;rounded=0;orthogonalLoop=1;jettySize=auto;html=1;exitX=0;exitY=1;exitDx=0;exitDy=0;entryX=0;entryY=0;entryDx=0;entryDy=0;endArrow=open;endFill=0;" parent="8jS8tGEaeRGomXdJ01GG-1" source="8jS8tGEaeRGomXdJ01GG-18" target="8jS8tGEaeRGomXdJ01GG-21" edge="1"><mxGeometry relative="1" as="geometry"/></mxCell><mxCell id="8jS8tGEaeRGomXdJ01GG-18" value="Delete account" style="ellipse;whiteSpace=wrap;html=1;" parent="8jS8tGEaeRGomXdJ01GG-1" vertex="1"><mxGeometry x="500" y="550" width="140" height="70" as="geometry"/></mxCell><mxCell id="8jS8tGEaeRGomXdJ01GG-19" value="&amp;lt;&amp;lt;include&amp;gt;&amp;gt;" style="edgeStyle=none;rounded=0;orthogonalLoop=1;jettySize=auto;html=1;exitX=0;exitY=0;exitDx=0;exitDy=0;entryX=1;entryY=1;entryDx=0;entryDy=0;endArrow=open;endFill=0;" parent="8jS8tGEaeRGomXdJ01GG-1" source="8jS8tGEaeRGomXdJ01GG-20" target="8jS8tGEaeRGomXdJ01GG-21" edge="1"><mxGeometry relative="1" as="geometry"/></mxCell><mxCell id="8jS8tGEaeRGomXdJ01GG-20" value="logout" style="ellipse;whiteSpace=wrap;html=1;" parent="8jS8tGEaeRGomXdJ01GG-1" vertex="1"><mxGeometry x="450" y="800" width="140" height="70" as="geometry"/></mxCell><mxCell id="8jS8tGEaeRGomXdJ01GG-21" value="login" style="ellipse;whiteSpace=wrap;html=1;" parent="8jS8tGEaeRGomXdJ01GG-1" vertex="1"><mxGeometry x="290" y="720" width="140" height="70" as="geometry"/></mxCell><mxCell id="8jS8tGEaeRGomXdJ01GG-22" value="&amp;lt;&amp;lt;include&amp;gt;&amp;gt;" style="edgeStyle=none;rounded=0;orthogonalLoop=1;jettySize=auto;html=1;exitX=0;exitY=1;exitDx=0;exitDy=0;entryX=1;entryY=0;entryDx=0;entryDy=0;endArrow=open;endFill=0;" parent="8jS8tGEaeRGomXdJ01GG-1" source="8jS8tGEaeRGomXdJ01GG-23" target="8jS8tGEaeRGomXdJ01GG-21" edge="1"><mxGeometry relative="1" as="geometry"/></mxCell><mxCell id="8jS8tGEaeRGomXdJ01GG-23" value="Update password" style="ellipse;whiteSpace=wrap;html=1;" parent="8jS8tGEaeRGomXdJ01GG-1" vertex="1"><mxGeometry x="560" y="630" width="140" height="70" as="geometry"/></mxCell><mxCell id="8jS8tGEaeRGomXdJ01GG-24" style="rounded=0;orthogonalLoop=1;jettySize=auto;html=1;exitX=0;exitY=0.3333333333333333;exitDx=0;exitDy=0;exitPerimeter=0;endArrow=none;endFill=0;entryX=1;entryY=0.5;entryDx=0;entryDy=0;" parent="8jS8tGEaeRGomXdJ01GG-1" source="8jS8tGEaeRGomXdJ01GG-30" target="8jS8tGEaeRGomXdJ01GG-21" edge="1"><mxGeometry relative="1" as="geometry"><mxPoint x="200" y="610" as="targetPoint"/></mxGeometry></mxCell><mxCell id="8jS8tGEaeRGomXdJ01GG-25" style="edgeStyle=none;rounded=0;orthogonalLoop=1;jettySize=auto;html=1;exitX=0;exitY=0.3333333333333333;exitDx=0;exitDy=0;exitPerimeter=0;entryX=1;entryY=0.5;entryDx=0;entryDy=0;endArrow=none;endFill=0;" parent="8jS8tGEaeRGomXdJ01GG-1" source="8jS8tGEaeRGomXdJ01GG-30" target="8jS8tGEaeRGomXdJ01GG-20" edge="1"><mxGeometry relative="1" as="geometry"/></mxCell><mxCell id="8jS8tGEaeRGomXdJ01GG-26" style="edgeStyle=none;rounded=0;orthogonalLoop=1;jettySize=auto;html=1;exitX=0;exitY=0.3333333333333333;exitDx=0;exitDy=0;exitPerimeter=0;entryX=1;entryY=0.5;entryDx=0;entryDy=0;endArrow=none;endFill=0;" parent="8jS8tGEaeRGomXdJ01GG-1" source="8jS8tGEaeRGomXdJ01GG-30" target="8jS8tGEaeRGomXdJ01GG-14" edge="1"><mxGeometry relative="1" as="geometry"/></mxCell><mxCell id="8jS8tGEaeRGomXdJ01GG-27" style="edgeStyle=none;rounded=0;orthogonalLoop=1;jettySize=auto;html=1;entryX=1;entryY=0.5;entryDx=0;entryDy=0;endArrow=none;endFill=0;exitX=0;exitY=0.3333333333333333;exitDx=0;exitDy=0;exitPerimeter=0;" parent="8jS8tGEaeRGomXdJ01GG-1" source="8jS8tGEaeRGomXdJ01GG-30" target="8jS8tGEaeRGomXdJ01GG-23" edge="1"><mxGeometry relative="1" as="geometry"/></mxCell><mxCell id="8jS8tGEaeRGomXdJ01GG-28" style="edgeStyle=none;rounded=0;orthogonalLoop=1;jettySize=auto;html=1;exitX=0;exitY=0.3333333333333333;exitDx=0;exitDy=0;exitPerimeter=0;entryX=1;entryY=0.5;entryDx=0;entryDy=0;endArrow=none;endFill=0;" parent="8jS8tGEaeRGomXdJ01GG-1" source="8jS8tGEaeRGomXdJ01GG-30" target="8jS8tGEaeRGomXdJ01GG-12" edge="1"><mxGeometry relative="1" as="geometry"/></mxCell><mxCell id="8jS8tGEaeRGomXdJ01GG-29" style="edgeStyle=none;rounded=0;orthogonalLoop=1;jettySize=auto;html=1;exitX=0;exitY=0.3333333333333333;exitDx=0;exitDy=0;exitPerimeter=0;entryX=1;entryY=0.5;entryDx=0;entryDy=0;endArrow=none;endFill=0;" parent="8jS8tGEaeRGomXdJ01GG-1" source="8jS8tGEaeRGomXdJ01GG-30" target="8jS8tGEaeRGomXdJ01GG-18" edge="1"><mxGeometry relative="1" as="geometry"/></mxCell><mxCell id="8jS8tGEaeRGomXdJ01GG-30" value="Admin" style="shape=umlActor;verticalLabelPosition=bottom;verticalAlign=top;html=1;" parent="8jS8tGEaeRGomXdJ01GG-1" vertex="1"><mxGeometry x="940" y="640" width="30" height="60" as="geometry"/></mxCell><mxCell id="8jS8tGEaeRGomXdJ01GG-31" style="edgeStyle=none;rounded=0;orthogonalLoop=1;jettySize=auto;html=1;exitX=0.5;exitY=0;exitDx=0;exitDy=0;endArrow=open;endFill=0;entryX=0;entryY=1;entryDx=0;entryDy=0;" parent="8jS8tGEaeRGomXdJ01GG-1" source="8jS8tGEaeRGomXdJ01GG-33" target="8jS8tGEaeRGomXdJ01GG-21" edge="1"><mxGeometry relative="1" as="geometry"/></mxCell><mxCell id="8jS8tGEaeRGomXdJ01GG-32" value="&amp;lt;&amp;lt;include&amp;gt;&amp;gt;" style="edgeLabel;html=1;align=center;verticalAlign=middle;resizable=0;points=[];" parent="8jS8tGEaeRGomXdJ01GG-31" vertex="1" connectable="0"><mxGeometry x="-0.3547" y="1" relative="1" as="geometry"><mxPoint x="22" y="-14" as="offset"/></mxGeometry></mxCell><mxCell id="8jS8tGEaeRGomXdJ01GG-33" value="Check balance" style="ellipse;whiteSpace=wrap;html=1;" parent="8jS8tGEaeRGomXdJ01GG-1" vertex="1"><mxGeometry x="220" y="890" width="140" height="70" as="geometry"/></mxCell><mxCell id="MYPOaZnT1eFd7IFUkO_L-8" style="edgeStyle=none;rounded=0;orthogonalLoop=1;jettySize=auto;html=1;exitX=0.5;exitY=1;exitDx=0;exitDy=0;endArrow=open;endFill=0;" parent="8jS8tGEaeRGomXdJ01GG-1" source="MYPOaZnT1eFd7IFUkO_L-0" target="8jS8tGEaeRGomXdJ01GG-21" edge="1"><mxGeometry relative="1" as="geometry"><Array as="points"><mxPoint x="390" y="590"/></Array></mxGeometry></mxCell><mxCell id="MYPOaZnT1eFd7IFUkO_L-9" value="&amp;lt;&amp;lt;include&amp;gt;&amp;gt;" style="edgeLabel;html=1;align=center;verticalAlign=middle;resizable=0;points=[];" parent="MYPOaZnT1eFd7IFUkO_L-8" vertex="1" connectable="0"><mxGeometry x="-0.1825" y="3" relative="1" as="geometry"><mxPoint as="offset"/></mxGeometry></mxCell><mxCell id="MYPOaZnT1eFd7IFUkO_L-0" value="Withdraw money" style="ellipse;whiteSpace=wrap;html=1;" parent="8jS8tGEaeRGomXdJ01GG-1" vertex="1"><mxGeometry x="310" y="480" width="140" height="70" as="geometry"/></mxCell><mxCell id="MYPOaZnT1eFd7IFUkO_L-10" style="edgeStyle=none;rounded=0;orthogonalLoop=1;jettySize=auto;html=1;exitX=0.5;exitY=1;exitDx=0;exitDy=0;entryX=0.5;entryY=0;entryDx=0;entryDy=0;endArrow=open;endFill=0;" parent="8jS8tGEaeRGomXdJ01GG-1" source="MYPOaZnT1eFd7IFUkO_L-1" target="8jS8tGEaeRGomXdJ01GG-21" edge="1"><mxGeometry relative="1" as="geometry"/></mxCell><mxCell id="MYPOaZnT1eFd7IFUkO_L-11" value="&amp;lt;&amp;lt;include&amp;gt;&amp;gt;" style="edgeLabel;html=1;align=center;verticalAlign=middle;resizable=0;points=[];" parent="MYPOaZnT1eFd7IFUkO_L-10" vertex="1" connectable="0"><mxGeometry x="-0.4372" y="3" relative="1" as="geometry"><mxPoint as="offset"/></mxGeometry></mxCell><mxCell id="MYPOaZnT1eFd7IFUkO_L-1" value="Deposit money" style="ellipse;whiteSpace=wrap;html=1;" parent="8jS8tGEaeRGomXdJ01GG-1" vertex="1"><mxGeometry x="240" y="550" width="140" height="70" as="geometry"/></mxCell><mxCell id="MYPOaZnT1eFd7IFUkO_L-5" style="edgeStyle=none;rounded=0;orthogonalLoop=1;jettySize=auto;html=1;exitX=0;exitY=0.5;exitDx=0;exitDy=0;entryX=1;entryY=0.3333333333333333;entryDx=0;entryDy=0;entryPerimeter=0;endArrow=none;endFill=0;" parent="8jS8tGEaeRGomXdJ01GG-1" source="MYPOaZnT1eFd7IFUkO_L-4" target="8jS8tGEaeRGomXdJ01GG-9" edge="1"><mxGeometry relative="1" as="geometry"><Array as="points"><mxPoint x="280" y="510"/></Array></mxGeometry></mxCell><mxCell id="MYPOaZnT1eFd7IFUkO_L-6" style="edgeStyle=none;rounded=0;orthogonalLoop=1;jettySize=auto;html=1;entryX=0.5;entryY=0;entryDx=0;entryDy=0;endArrow=open;endFill=0;" parent="8jS8tGEaeRGomXdJ01GG-1" source="MYPOaZnT1eFd7IFUkO_L-4" target="8jS8tGEaeRGomXdJ01GG-21" edge="1"><mxGeometry relative="1" as="geometry"><Array as="points"><mxPoint x="440" y="590"/></Array></mxGeometry></mxCell><mxCell id="MYPOaZnT1eFd7IFUkO_L-7" value="&amp;lt;&amp;lt;include&amp;gt;&amp;gt;" style="edgeLabel;html=1;align=center;verticalAlign=middle;resizable=0;points=[];" parent="MYPOaZnT1eFd7IFUkO_L-6" vertex="1" connectable="0"><mxGeometry x="0.1696" y="4" relative="1" as="geometry"><mxPoint x="26" y="-64" as="offset"/></mxGeometry></mxCell><mxCell id="MYPOaZnT1eFd7IFUkO_L-4" value="Transfer money" style="ellipse;whiteSpace=wrap;html=1;" parent="8jS8tGEaeRGomXdJ01GG-1" vertex="1"><mxGeometry x="410" y="400" width="140" height="70" as="geometry"/></mxCell></root></mxGraphModel></diagram></mxfile>